<svg xmlns="http://www.w3.org/2000/svg" xmlns:svg="http://www.w3.org/2000/svg" xmlns:xlink="http://www.w3.org/1999/xlink" id="svg2" width="850" height="1052.362" version="1.1"><defs id="defs4"><linearGradient id="linearGradient3873"><stop style="stop-color:#636363;stop-opacity:1" id="stop3875" offset="0"/><stop style="stop-color:#b1b1b1;stop-opacity:1" id="stop3877" offset="1"/></linearGradient><linearGradient id="linearGradient3863"><stop style="stop-color:#eee;stop-opacity:1" id="stop3865" offset="0"/><stop style="stop-color:#fff;stop-opacity:1" id="stop3867" offset="1"/></linearGradient><marker id="Arrow1Mstart" orient="auto" refX="0" refY="0" style="overflow:visible"><path id="path4005" d="M 0.0,0.0 L 5.0,-5.0 L -12.5,0.0 L 5.0,5.0 L 0.0,0.0 z" transform="scale(0.4) translate(10,0)" style="fill-rule:evenodd;stroke:#000;stroke-width:1pt;marker-start:none"/></marker><marker id="Arrow2Send" orient="auto" refX="0" refY="0" style="overflow:visible"><path id="path4032" d="M 8.7185878,4.0337352 -2.2072895,0.01601326 8.7185884,-4.0017078 c -1.7454984,2.3720609 -1.7354408,5.6174519 -6e-7,8.035443 z" transform="matrix(-0.3,0,0,-0.3,0.69,0)" style="font-size:12px;fill-rule:evenodd;stroke-width:.625;stroke-linejoin:round"/></marker><marker id="Arrow2Sstart" orient="auto" refX="0" refY="0" style="overflow:visible"><path id="path4029" d="M 8.7185878,4.0337352 -2.2072895,0.01601326 8.7185884,-4.0017078 c -1.7454984,2.3720609 -1.7354408,5.6174519 -6e-7,8.035443 z" transform="matrix(0.3,0,0,0.3,-0.69,0)" style="font-size:12px;fill-rule:evenodd;stroke-width:.625;stroke-linejoin:round"/></marker><marker id="Arrow2Mend" orient="auto" refX="0" refY="0" style="overflow:visible"><path id="path4026" d="M 8.7185878,4.0337352 -2.2072895,0.01601326 8.7185884,-4.0017078 c -1.7454984,2.3720609 -1.7354408,5.6174519 -6e-7,8.035443 z" transform="scale(-0.6,-0.6)" style="font-size:12px;fill-rule:evenodd;stroke-width:.625;stroke-linejoin:round"/></marker><marker id="Arrow2Mstart" orient="auto" refX="0" refY="0" style="overflow:visible"><path id="path4023" d="M 8.7185878,4.0337352 -2.2072895,0.01601326 8.7185884,-4.0017078 c -1.7454984,2.3720609 -1.7354408,5.6174519 -6e-7,8.035443 z" transform="scale(0.6,0.6)" style="font-size:12px;fill-rule:evenodd;stroke-width:.625;stroke-linejoin:round"/></marker><radialGradient id="radialGradient3871" cx="399.861" cy="173.654" r="124.212" fx="399.861" fy="173.654" gradientTransform="matrix(0.08359871,-0.53730252,1.4968758,0.23289847,152.10997,303.41193)" gradientUnits="userSpaceOnUse" xlink:href="#linearGradient3863"/><radialGradient id="radialGradient3881" cx="420.476" cy="176.685" r="124.212" fx="420.476" fy="176.685" gradientTransform="matrix(0.19105948,-0.65672497,1.4449036,0.42036247,84.848158,325.87482)" gradientUnits="userSpaceOnUse" xlink:href="#linearGradient3873"/></defs><metadata id="metadata7"/><g id="layer1"><g id="g3963" transform="matrix(0.63975588,0,0,0.63975588,121.89997,153.53014)"><rect id="rect3958" width="187.5" height="134" x="403" y="96.362" rx="15" ry="15" style="fill:#106bce;fill-opacity:1;stroke:none"/><rect id="rect3917" width="200" height="134" x="206" y="96.362" rx="15" ry="15" style="fill:#3d93f0;fill-opacity:1;stroke:none"/><text style="font-size:25.53247833px;font-style:normal;font-variant:normal;font-weight:400;font-stretch:normal;line-height:125%;letter-spacing:0;word-spacing:0;fill:#fff;fill-opacity:1;stroke:none;font-family:Arial;-inkscape-font-specification:Arial" id="text3923" x="306.666" y="136.186" xml:space="preserve"><tspan style="font-size:25.53247833px;font-style:normal;font-variant:normal;font-weight:500;font-stretch:condensed;text-align:center;line-height:125%;writing-mode:lr-tb;text-anchor:middle;font-family:Pluto Sans;-inkscape-font-specification:Pluto Sans Medium Condensed" id="tspan3925" x="306.666" y="136.186">Passenger</tspan><tspan style="font-size:25.53247833px;font-style:normal;font-variant:normal;font-weight:500;font-stretch:condensed;text-align:center;line-height:125%;writing-mode:lr-tb;text-anchor:middle;font-family:Pluto Sans;-inkscape-font-specification:Pluto Sans Medium Condensed" id="tspan3927" x="306.666" y="168.101">+</tspan><tspan id="tspan3929" x="306.666" y="200.017" style="font-size:25.53247833px;font-style:normal;font-variant:normal;font-weight:500;font-stretch:condensed;text-align:center;line-height:125%;writing-mode:lr-tb;text-anchor:middle;font-family:Pluto Sans;-inkscape-font-specification:Pluto Sans Medium Condensed">Nginx</tspan></text><rect style="fill:#106bce;fill-opacity:1;stroke:none" id="rect3931" width="187.5" height="134" x="385" y="96.362"/><text id="text3933" x="486.666" y="137.686" xml:space="preserve" style="font-size:25.53247833px;font-style:normal;font-variant:normal;font-weight:400;font-stretch:normal;line-height:125%;letter-spacing:0;word-spacing:0;fill:#fff;fill-opacity:1;stroke:none;font-family:Arial;-inkscape-font-specification:Arial"><tspan id="tspan3946" x="486.666" y="137.686" style="font-size:25.53247833px;font-style:normal;font-variant:normal;font-weight:400;font-stretch:condensed;text-align:center;line-height:125%;writing-mode:lr-tb;text-anchor:middle;font-family:Pluto Sans;-inkscape-font-specification:Pluto Sans Condensed">Management</tspan></text><path id="rect3960" d="m 418,163.86218 172.5,0 0,51.5 c 0,8.31 -6.69,15 -15,15 l -157.5,0 c -8.31,0 -15,-6.69 -15,-15 l 0,-36.5 c 0,-8.31 6.69857,-15.37734 15,-15 z" style="fill:#137bed;fill-opacity:1;stroke:none"/><rect id="rect3950" width="187.5" height="66.5" x="385" y="163.862" style="fill:#137bed;fill-opacity:1;stroke:none"/><text style="font-size:25.53247833px;font-style:normal;font-variant:normal;font-weight:400;font-stretch:normal;line-height:125%;letter-spacing:0;word-spacing:0;fill:#fff;fill-opacity:1;stroke:none;font-family:Arial;-inkscape-font-specification:Arial" id="text3952" x="485.166" y="203.686" xml:space="preserve"><tspan style="font-size:25.53247833px;font-style:normal;font-variant:normal;font-weight:400;font-stretch:condensed;text-align:center;line-height:125%;writing-mode:lr-tb;text-anchor:middle;font-family:Pluto Sans;-inkscape-font-specification:Pluto Sans Condensed" id="tspan3954" x="485.166" y="203.686">Inspection</tspan></text></g><g id="g3805" transform="matrix(0.96875643,0,0,0.96875643,54.85768,351.22217)"><rect id="rect2985" width="170" height="77" x="28" y="96.362" rx="10" ry="10" style="fill:#5dc737;fill-opacity:1;stroke:none"/><text id="text2987" x="52" y="145.362" xml:space="preserve" style="font-size:16px;font-style:normal;font-variant:normal;font-weight:400;font-stretch:normal;line-height:125%;letter-spacing:0;word-spacing:0;fill:#fff;fill-opacity:1;stroke:none;font-family:Arial;-inkscape-font-specification:Arial"><tspan style="font-size:32px;font-style:normal;font-variant:normal;font-weight:700;font-stretch:normal;font-family:Pluto Sans;-inkscape-font-specification:Pluto Sans Bold" id="tspan2989" x="52" y="145.362">Node.js</tspan></text></g><g id="g3986" transform="matrix(0.96875643,0,0,0.96875643,246.56886,351.22217)"><rect style="fill:#5dc737;fill-opacity:1;stroke:none" id="rect3988" width="170" height="77" x="28" y="96.362" rx="10" ry="10"/><text style="font-size:16px;font-style:normal;font-variant:normal;font-weight:400;font-stretch:normal;line-height:125%;letter-spacing:0;word-spacing:0;fill:#fff;fill-opacity:1;stroke:none;font-family:Arial;-inkscape-font-specification:Arial" id="text3990" x="52" y="145.362" xml:space="preserve"><tspan id="tspan3992" x="52" y="145.362" style="font-size:32px;font-style:normal;font-variant:normal;font-weight:700;font-stretch:normal;font-family:Pluto Sans;-inkscape-font-specification:Pluto Sans Bold">Node.js</tspan></text></g><path style="fill:none;stroke:#000;stroke-width:8;stroke-linecap:butt;stroke-linejoin:miter;stroke-miterlimit:4;stroke-opacity:1;stroke-dasharray:none;marker-start:url(#Arrow2Sstart);marker-end:url(#Arrow2Send)" id="path3994" d="m 281.76628,316.63576 -68.6403,124.81129"/><path id="path5004" d="M 357.84638,444.47452 357.56679,316.65484" style="fill:none;stroke:#000;stroke-width:8;stroke-linecap:butt;stroke-linejoin:miter;stroke-miterlimit:4;stroke-opacity:1;stroke-dasharray:none;marker-start:url(#Arrow2Sstart);marker-end:url(#Arrow2Send)"/><text style="font-size:12.87560654px;font-style:normal;font-variant:normal;font-weight:400;font-stretch:normal;text-align:center;line-height:125%;letter-spacing:0;word-spacing:0;text-anchor:middle;fill:#000;fill-opacity:1;stroke:none;font-family:Arial;-inkscape-font-specification:Arial" id="text5006" x="-216.756" y="369.316" transform="matrix(0.47513133,-0.87991489,0.87991489,0.47513133,0,0)" xml:space="preserve"><tspan id="tspan5008" x="-216.756" y="369.316" style="font-size:12.87560654px;font-style:normal;font-variant:normal;font-weight:400;font-stretch:condensed;text-align:center;line-height:125%;writing-mode:lr-tb;text-anchor:middle;font-family:Pluto Sans;-inkscape-font-specification:Pluto Sans Condensed">High-performance</tspan><tspan id="tspan5010" x="-216.756" y="385.411" style="font-size:12.87560654px;font-style:normal;font-variant:normal;font-weight:400;font-stretch:condensed;text-align:center;line-height:125%;writing-mode:lr-tb;text-anchor:middle;font-family:Pluto Sans;-inkscape-font-specification:Pluto Sans Condensed">Unix channel</tspan></text><g id="g5055" transform="translate(31,183)"><rect id="rect5049" width="143" height="57" x="-14" y="111.362" rx="10" ry="10" style="fill:#92c61d;fill-opacity:1;stroke:none"/><text id="text5051" x="13" y="145.362" xml:space="preserve" style="font-size:16px;font-style:normal;font-variant:normal;font-weight:400;font-stretch:normal;line-height:125%;letter-spacing:0;word-spacing:0;fill:#fff;fill-opacity:1;stroke:none;font-family:Arial;-inkscape-font-specification:Arial"><tspan style="font-size:18px;font-style:normal;font-variant:normal;font-weight:500;font-stretch:condensed;text-align:start;line-height:125%;writing-mode:lr-tb;text-anchor:start;font-family:Pluto Sans;-inkscape-font-specification:Pluto Sans Medium Condensed" id="tspan5053" x="13" y="145.362">Filesystem</tspan></text></g><path style="fill:none;stroke:#000;stroke-width:5;stroke-linecap:butt;stroke-linejoin:miter;stroke-miterlimit:4;stroke-opacity:1;stroke-dasharray:none;marker-start:url(#Arrow2Sstart);marker-end:url(#Arrow2Send)" id="path5060" d="m 253,258.36218 -166,0 0,33.52872"/><text style="font-size:16px;font-style:normal;font-variant:normal;font-weight:400;font-stretch:normal;line-height:125%;letter-spacing:0;word-spacing:0;fill:#000;fill-opacity:1;stroke:none;font-family:Arial;-inkscape-font-specification:Arial" id="text5444" x="84" y="248.362" xml:space="preserve"><tspan id="tspan5446" x="84" y="248.362" style="font-size:16px;font-style:normal;font-variant:normal;font-weight:400;font-stretch:condensed;text-align:start;line-height:125%;writing-mode:lr-tb;text-anchor:start;font-family:Pluto Sans;-inkscape-font-specification:Pluto Sans Condensed">Static file acceleration</tspan></text><g id="g6238" transform="translate(3,133)"><g id="g5462" transform="translate(38,-12)"><path style="fill:#6fb6de;fill-opacity:1;stroke:none" id="path5448" d="m 654,73.875 c -13.71265,0 -24.82895,11.116298 -24.82895,24.828947 0,9.155773 4.99343,17.101053 12.36883,21.405843 -14.03045,5.70434 -24.05304,20.7911 -24.05304,38.47574 0,10.01686 3.24256,19.1791 8.58059,26.28947 l 55.86514,0 c 5.33803,-7.11037 8.58059,-16.27261 8.58059,-26.28947 0,-17.68464 -10.02259,-32.7714 -24.05304,-38.47574 7.3754,-4.30479 12.36883,-12.25007 12.36883,-21.405843 C 678.82895,84.991298 667.71265,73.875 654,73.875 z"/><path style="fill:none;stroke:#3389ff;stroke-width:3;stroke-linecap:round;stroke-linejoin:round;stroke-miterlimit:4;stroke-opacity:1;stroke-dasharray:none" id="path5456" d="m 644,106.36218 c 0,0 9.5,12 20,0"/><path style="fill:#3389ff;fill-opacity:1;stroke:none" id="path5458" d="m 575.5,103.86218 c 0,1.65686 -1.34315,3 -3,3 -1.65685,0 -3,-1.34314 -3,-3 0,-1.65685 1.34315,-3 3,-3 1.65685,0 3,1.34315 3,3 z" transform="translate(72.5,-9.5)"/><path id="path5460" d="m 575.5,103.86218 c 0,1.65686 -1.34315,3 -3,3 -1.65685,0 -3,-1.34314 -3,-3 0,-1.65685 1.34315,-3 3,-3 1.65685,0 3,1.34315 3,3 z" transform="translate(90.5,-9.5)" style="fill:#3389ff;fill-opacity:1;stroke:none"/></g><text id="text5468" x="691.824" y="197.362" xml:space="preserve" style="font-size:16px;font-style:normal;font-variant:normal;font-weight:400;font-stretch:normal;line-height:125%;letter-spacing:0;word-spacing:0;fill:#000;fill-opacity:1;stroke:none;font-family:Arial;-inkscape-font-specification:Arial"><tspan style="font-size:18px;font-style:normal;font-variant:normal;font-weight:400;font-stretch:normal;text-align:center;line-height:125%;writing-mode:lr-tb;text-anchor:middle;font-family:Pluto Sans;-inkscape-font-specification:Pluto Sans" id="tspan5470" x="691.824" y="197.362">You only deal with one</tspan><tspan id="tspan5472" x="691.824" y="219.862" style="font-size:18px;font-style:normal;font-variant:normal;font-weight:400;font-stretch:normal;text-align:center;line-height:125%;writing-mode:lr-tb;text-anchor:middle;font-family:Pluto Sans;-inkscape-font-specification:Pluto Sans">thing. Much easier.</tspan></text></g><path style="fill:none;stroke:#000;stroke-width:5;stroke-linecap:butt;stroke-linejoin:miter;stroke-miterlimit:4;stroke-opacity:1;stroke-dasharray:none;marker-start:url(#Arrow2Mstart)" id="path5474" d="m 525,256.36218 119,0"/><path style="fill:url(#radialGradient3871);fill-opacity:1;stroke:url(#radialGradient3881);stroke-width:3;stroke-miterlimit:4;stroke-opacity:1;stroke-dasharray:none" id="path6248" d="m 365.31316,30.858157 c -31.87555,3.054126 -58.12241,15.226805 -67.31975,29.681083 -33.71321,4.861688 -58.83608,21.896149 -57.14883,39.5058 1.79097,18.69207 33.103,30.98397 69.93739,27.45472 9.48641,-0.90893 18.42234,-2.79353 26.41904,-5.38809 14.33469,10.45714 41.87556,15.92236 72.75561,12.96362 43.98136,-4.21403 78.07668,-23.89729 76.15403,-43.963782 -1.29771,-13.544074 -18.69292,-23.79842 -43.3747,-27.739499 0.21494,-1.421792 0.26078,-2.848192 0.12347,-4.281294 C 440.98944,39.573986 406.2708,26.93384 365.31316,30.858157 z"/><text style="font-size:16px;font-style:normal;font-variant:normal;font-weight:400;font-stretch:normal;line-height:125%;letter-spacing:0;word-spacing:0;fill:#464646;fill-opacity:1;stroke:none;font-family:Arial;-inkscape-font-specification:Arial" id="text6276" x="330" y="96.362" xml:space="preserve"><tspan id="tspan6278" x="330" y="96.362" style="font-size:36px;font-style:normal;font-variant:normal;font-weight:500;font-stretch:condensed;text-align:start;line-height:125%;writing-mode:lr-tb;text-anchor:start;font-family:Pluto Sans;-inkscape-font-specification:Pluto Sans Medium Condensed;fill:#464646;fill-opacity:1">Web</tspan></text><path style="fill:none;stroke:#000;stroke-width:5;stroke-linecap:butt;stroke-linejoin:miter;stroke-opacity:1;stroke-miterlimit:4;stroke-dasharray:15,15;stroke-dashoffset:0" id="path6293" d="m 375,141.36218 0,70"/><path id="path6507" d="m 383,416.36218 a 5,6 0 1 1 -10,0 5,6 0 1 1 10,0 z" transform="matrix(18.915507,0,0,19.762923,-6593.8118,-7739.4215)" style="fill:#fff;stroke:#000;stroke-width:.1773507;stroke-linecap:round;stroke-linejoin:round;stroke-miterlimit:4;stroke-opacity:1;stroke-dasharray:none;stroke-dashoffset:0;fill-opacity:1"/><text style="font-size:16px;font-style:normal;font-variant:normal;font-weight:400;font-stretch:normal;line-height:125%;letter-spacing:0;word-spacing:0;fill:#000;fill-opacity:1;stroke:none;font-family:Arial;-inkscape-font-specification:Arial" id="text6485" x="558.684" y="439.862" xml:space="preserve"><tspan id="tspan6487" x="558.684" y="439.862" style="font-size:16px;font-style:normal;font-variant:normal;font-weight:500;font-stretch:condensed;text-align:center;line-height:125%;writing-mode:lr-tb;text-anchor:middle;font-family:Pluto Sans;-inkscape-font-specification:Pluto Sans Medium Condensed">Taken care for you:</tspan><tspan style="font-size:16px;font-style:normal;font-variant:normal;font-weight:400;font-stretch:condensed;text-align:center;line-height:125%;writing-mode:lr-tb;text-anchor:middle;font-family:Pluto Sans;-inkscape-font-specification:Pluto Sans Condensed" id="tspan6489" x="558.684" y="459.862">Process spawning</tspan><tspan style="font-size:16px;font-style:normal;font-variant:normal;font-weight:400;font-stretch:condensed;text-align:center;line-height:125%;writing-mode:lr-tb;text-anchor:middle;font-family:Pluto Sans;-inkscape-font-specification:Pluto Sans Condensed" id="tspan6491" x="558.684" y="479.862">Process scaling</tspan><tspan style="font-size:16px;font-style:normal;font-variant:normal;font-weight:400;font-stretch:condensed;text-align:center;line-height:125%;writing-mode:lr-tb;text-anchor:middle;font-family:Pluto Sans;-inkscape-font-specification:Pluto Sans Condensed" id="tspan6493" x="558.684" y="499.862">Load balancing</tspan><tspan style="font-size:16px;font-style:normal;font-variant:normal;font-weight:400;font-stretch:condensed;text-align:center;line-height:125%;writing-mode:lr-tb;text-anchor:middle;font-family:Pluto Sans;-inkscape-font-specification:Pluto Sans Condensed" id="tspan6495" x="558.684" y="519.862">Multi-core support</tspan><tspan style="font-size:16px;font-style:normal;font-variant:normal;font-weight:400;font-stretch:condensed;text-align:center;line-height:125%;writing-mode:lr-tb;text-anchor:middle;font-family:Pluto Sans;-inkscape-font-specification:Pluto Sans Condensed" id="tspan6497" x="558.684" y="539.862">Supervision</tspan><tspan style="font-size:16px;font-style:normal;font-variant:normal;font-weight:400;font-stretch:condensed;text-align:center;line-height:125%;writing-mode:lr-tb;text-anchor:middle;font-family:Pluto Sans;-inkscape-font-specification:Pluto Sans Condensed" id="tspan6499" x="558.684" y="559.862">...and more!</tspan></text><path style="fill:#fff;fill-opacity:1;stroke:#000;stroke-width:1.44975093;stroke-linecap:round;stroke-linejoin:round;stroke-miterlimit:4;stroke-opacity:1;stroke-dasharray:none;stroke-dashoffset:0" id="path6501" d="m 383,416.36218 a 5,6 0 1 1 -10,0 5,6 0 1 1 10,0 z" transform="matrix(1.4620453,0,0,1.3017044,-170.15311,-155.1183)"/><path id="path6503" d="m 383,416.36218 a 5,6 0 1 1 -10,0 5,6 0 1 1 10,0 z" transform="matrix(2.095475,0,0,1.9962292,-379.08955,-432.29214)" style="fill:#fff;fill-opacity:1;stroke:#000;stroke-width:1;stroke-linecap:round;stroke-linejoin:round;stroke-miterlimit:4;stroke-opacity:1;stroke-dasharray:none;stroke-dashoffset:0"/><path style="fill:#fff;fill-opacity:1;stroke:#000;stroke-width:1;stroke-linecap:round;stroke-linejoin:round;stroke-miterlimit:4;stroke-opacity:1;stroke-dasharray:none;stroke-dashoffset:0" id="path6505" d="m 383,416.36218 a 5,6 0 1 1 -10,0 5,6 0 1 1 10,0 z" transform="matrix(3,0,0,3,-682,-834.72437)"/></g></svg>